<?xml version="1.0" standalone="no"?>
<!DOCTYPE svg PUBLIC "-//W3C//DTD SVG 20010904//EN"
 "http://www.w3.org/TR/2001/REC-SVG-20010904/DTD/svg10.dtd">
<svg version="1.0" xmlns="http://www.w3.org/2000/svg"
 width="260.000000pt" height="260.000000pt" viewBox="0 0 260.000000 260.000000"
 preserveAspectRatio="xMidYMid meet">
<metadata>
Created by potrace 1.11, written by Peter Selinger 2001-2013
</metadata>
<g transform="translate(0.000000,260.000000) scale(0.100000,-0.100000)"
fill="#000000" stroke="none">
<path d="M806 2444 c-140 -34 -306 -117 -382 -189 -7 -6 -25 -22 -41 -36 -52
-44 -152 -178 -188 -253 -40 -83 -71 -176 -82 -244 -15 -92 -8 -282 14 -367
106 -406 476 -687 901 -683 58 1 132 7 166 14 33 7 63 11 65 8 2 -2 -1 -4 -8
-4 -6 0 -25 -14 -41 -30 -16 -17 -34 -30 -40 -30 -6 0 -8 -5 -5 -10 3 -5 2
-10 -4 -10 -9 0 -43 -30 -155 -137 -22 -21 -36 -31 -31 -23 4 8 -19 -13 -53
-47 -33 -34 -63 -59 -66 -56 -3 4 -6 1 -6 -4 0 -6 -18 -24 -40 -41 -22 -16
-37 -32 -33 -35 3 -4 -1 -7 -9 -7 -9 0 -19 -7 -22 -16 -3 -8 -10 -12 -16 -9
-5 3 -10 2 -10 -2 0 -5 -7 -18 -16 -29 -8 -10 -12 -13 -8 -5 5 9 3 12 -4 7 -7
-4 -17 -16 -22 -27 -11 -19 1 -19 840 -19 l850 0 0 761 c0 604 -3 760 -12 756
-7 -2 -12 -10 -11 -16 2 -6 0 -10 -5 -9 -12 4 -62 -34 -56 -43 3 -5 -3 -6 -12
-2 -14 5 -16 3 -10 -12 4 -11 4 -16 0 -12 -4 3 -15 -3 -25 -14 -9 -11 -19 -19
-21 -17 -8 6 -67 -56 -62 -64 3 -5 2 -7 -3 -6 -14 4 -54 -23 -48 -33 4 -5 0
-9 -7 -9 -7 0 -19 -9 -26 -20 -7 -12 -17 -18 -22 -15 -5 3 -11 -4 -15 -15 -4
-11 -10 -18 -15 -15 -4 3 -11 -2 -14 -11 -3 -8 -11 -12 -16 -9 -6 4 -9 3 -8
-2 4 -10 -61 -73 -74 -73 -5 0 -6 5 -2 11 40 66 52 369 19 484 -9 33 -19 71
-22 85 -10 42 -88 185 -135 246 -118 153 -267 257 -453 318 -111 36 -123 37
-270 41 -111 3 -144 0 -229 -21z m1094 -1178 c0 -3 -4 -8 -10 -11 -5 -3 -10
-1 -10 4 0 6 5 11 10 11 6 0 10 -2 10 -4z m-130 -230 c0 -2 -8 -10 -17 -17
-16 -13 -17 -12 -4 4 13 16 21 21 21 13z m-85 -96 c-27 -27 -52 -50 -56 -50
-8 0 93 99 101 100 2 0 -18 -22 -45 -50z m-85 -75 c-7 -8 -17 -15 -23 -15 -6
0 -2 7 9 15 25 19 30 19 14 0z"/>
</g>
</svg>
