<?xml version="1.0" standalone="no"?>
<!DOCTYPE svg PUBLIC "-//W3C//DTD SVG 20010904//EN"
 "http://www.w3.org/TR/2001/REC-SVG-20010904/DTD/svg10.dtd">
<svg version="1.0" xmlns="http://www.w3.org/2000/svg"
 width="260.000000pt" height="260.000000pt" viewBox="0 0 260.000000 260.000000"
 preserveAspectRatio="xMidYMid meet">
<metadata>
Created by potrace 1.11, written by Peter Selinger 2001-2013
</metadata>
<g transform="translate(0.000000,260.000000) scale(0.100000,-0.100000)"
fill="#000000" stroke="none">
<path d="M0 1300 l0 -1300 1300 0 1300 0 0 1300 0 1300 -1300 0 -1300 0 0
-1300z m1070 1108 c74 -6 156 -12 181 -13 25 -1 55 -8 67 -14 12 -6 22 -9 22
-5 0 3 7 1 15 -6 8 -7 15 -10 15 -7 0 3 30 -3 67 -14 38 -10 82 -19 100 -19
17 0 34 -4 37 -9 3 -5 26 -12 50 -15 24 -4 50 -14 57 -22 7 -8 20 -12 30 -9
11 4 19 2 19 -3 0 -5 23 -19 50 -32 28 -13 50 -27 50 -32 0 -4 17 -17 38 -28
42 -22 102 -75 102 -89 0 -5 9 -13 20 -16 11 -3 20 -13 20 -21 0 -8 4 -14 8
-14 15 0 55 -104 60 -156 5 -55 -15 -103 -62 -153 -48 -51 -142 -111 -173
-111 -9 0 -32 -10 -52 -22 -20 -13 -36 -21 -36 -19 0 5 -42 -7 -70 -19 -20 -9
-152 -42 -260 -65 -33 -8 -78 -18 -100 -24 -22 -5 -58 -12 -80 -14 -22 -3
-100 -17 -173 -31 -72 -14 -152 -26 -176 -26 -50 0 -81 -21 -90 -62 -6 -26 13
-58 34 -58 5 0 15 -6 22 -13 7 -7 33 -21 57 -32 24 -11 60 -31 80 -45 20 -14
63 -39 96 -55 33 -17 62 -32 65 -35 3 -3 34 -24 70 -47 36 -24 70 -47 77 -53
7 -5 15 -10 18 -10 3 0 13 -8 23 -18 10 -9 29 -24 42 -32 12 -8 31 -23 40 -33
18 -18 20 -17 69 33 28 29 51 54 51 56 0 3 12 17 28 32 62 63 145 175 165 224
22 51 39 62 80 47 42 -15 58 -39 62 -96 4 -41 -1 -50 -58 -124 -34 -44 -66
-88 -72 -97 -5 -9 -22 -29 -37 -45 -16 -15 -28 -29 -28 -31 0 -2 -23 -27 -52
-56 l-52 -52 37 -34 c19 -19 41 -34 47 -34 6 0 21 -10 34 -23 13 -12 33 -29
46 -37 43 -29 115 -85 145 -112 17 -15 34 -28 39 -28 5 0 25 -15 46 -33 60
-52 80 -67 89 -67 5 0 11 -3 13 -7 9 -22 73 -63 97 -63 37 0 66 -42 70 -101 3
-51 -15 -79 -51 -79 -23 0 -79 29 -91 47 -4 7 -12 13 -18 13 -5 0 -19 9 -31
20 -12 11 -40 32 -62 47 -22 16 -53 39 -67 53 -31 28 -35 31 -104 79 -28 19
-52 38 -55 41 -10 11 -110 80 -118 80 -4 0 -29 21 -57 45 -27 25 -58 48 -67
51 -10 3 -18 9 -18 14 0 5 -8 10 -17 13 -18 4 -60 -31 -181 -153 -65 -65 -94
-113 -85 -137 3 -7 -9 -27 -25 -44 -23 -24 -37 -30 -54 -26 -25 7 -58 54 -51
74 3 7 -2 16 -11 19 -12 4 -13 11 -5 32 5 14 8 31 5 39 -3 7 -2 13 3 13 4 0
22 23 40 50 18 28 36 50 41 50 5 0 11 8 15 18 7 22 123 145 150 160 19 10 19
11 -7 21 -16 6 -28 15 -28 21 0 6 -18 19 -40 29 -22 10 -37 21 -33 24 3 4 2 7
-3 7 -8 0 -27 14 -81 60 -7 5 -16 10 -22 10 -5 0 -31 15 -58 33 -26 18 -66 41
-88 51 -22 10 -53 28 -70 40 -16 11 -62 37 -101 56 l-71 36 -45 -96 c-52 -108
-71 -152 -72 -162 -1 -4 -10 -18 -21 -30 -10 -13 -19 -25 -18 -28 1 -8 -8 -34
-22 -60 -26 -51 -56 -151 -51 -168 7 -21 -53 -85 -69 -74 -33 23 -45 62 -40
134 3 40 11 76 18 80 7 4 8 8 3 8 -5 0 -2 8 7 18 10 10 14 22 10 25 -3 4 3 26
15 49 19 38 43 94 47 108 0 3 7 16 15 30 7 14 12 26 10 28 -1 2 4 18 13 35 8
18 21 46 28 62 7 17 21 42 31 57 27 39 22 54 -27 89 -24 17 -42 35 -40 39 3 4
-2 13 -10 20 -8 7 -15 19 -15 26 0 8 -4 14 -10 14 -14 0 -12 79 3 94 6 7 26
11 42 10 17 0 40 3 52 7 13 5 44 11 70 15 65 8 80 18 88 56 4 18 11 35 16 38
5 4 10 25 12 48 3 24 7 45 11 49 3 3 6 15 6 25 0 10 4 18 9 18 5 0 11 12 14
28 6 33 74 282 91 337 11 35 17 40 45 42 39 2 109 -53 92 -70 -6 -6 -11 -19
-11 -28 0 -10 -13 -58 -30 -107 -16 -49 -31 -97 -33 -108 -2 -10 -9 -32 -15
-47 -7 -16 -12 -34 -12 -42 0 -8 -5 -17 -10 -20 -5 -3 -10 -14 -10 -25 0 -10
-11 -50 -24 -89 l-24 -71 23 0 c12 0 62 7 111 16 49 9 108 17 131 19 23 2 48
7 54 11 11 7 37 11 109 17 14 1 34 8 45 14 11 6 45 16 75 22 89 17 162 39 176
54 4 4 16 7 26 7 18 0 117 35 178 63 42 19 109 77 125 108 9 16 13 29 10 29
-4 0 -3 6 2 13 4 6 6 21 4 32 -4 23 -39 76 -58 88 -6 4 -18 14 -26 22 -17 16
-204 115 -219 115 -6 0 -24 6 -41 13 -56 24 -130 45 -197 58 -95 17 -110 19
-158 24 -24 3 -46 6 -50 9 -18 11 -205 20 -392 19 -163 0 -213 -4 -242 -16
-21 -9 -38 -20 -38 -26 0 -8 -37 -9 -107 -2 -7 0 -13 7 -13 15 0 8 -4 16 -9
18 -21 7 -17 98 5 98 8 0 12 5 9 11 -4 6 -1 9 6 8 8 -1 21 1 29 4 56 25 404
33 630 15z"/>
<path d="M1355 1600 c-3 -5 -1 -10 4 -10 6 0 11 5 11 10 0 6 -2 10 -4 10 -3 0
-8 -4 -11 -10z"/>
</g>
</svg>
